<?xml version="1.0" encoding="UTF-8"?>
<svg xmlns="http://www.w3.org/2000/svg"
     viewBox="0 0 320 540" width="320" height="540"
     shape-rendering="crispEdges">
  <!-- Astronaut pixel-art — frame: idle -->
  <!-- Color groups: helmet, visor, face, hair, beard, suit, suit-arms, suit-legs, gloves, boots, backpack, detail -->
  <g id="helmet" fill="#C5CED8">
    <rect x="110" y="20" width="100" height="10"/>
    <rect x="90" y="30" width="140" height="10"/>
    <rect x="80" y="40" width="160" height="10"/>
    <rect x="70" y="50" width="180" height="10"/>
    <rect x="70" y="60" width="180" height="10"/>
    <rect x="70" y="70" width="180" height="10"/>
    <rect x="70" y="80" width="180" height="10"/>
    <rect x="70" y="90" width="180" height="10"/>
    <rect x="70" y="100" width="180" height="10"/>
    <rect x="70" y="110" width="180" height="10"/>
    <rect x="70" y="120" width="180" height="10"/>
    <rect x="80" y="130" width="160" height="10"/>
    <rect x="90" y="140" width="140" height="10"/>
    <rect x="100" y="150" width="120" height="10"/>
    <rect x="120" y="160" width="80" height="10"/>
  </g>
  <g id="visor" fill="#1B2A4A">
    <rect x="100" y="50" width="120" height="10"/>
    <rect x="90" y="60" width="140" height="10"/>
    <rect x="90" y="70" width="140" height="10"/>
    <rect x="90" y="80" width="140" height="10"/>
    <rect x="90" y="90" width="140" height="10"/>
    <rect x="90" y="100" width="140" height="10"/>
    <rect x="90" y="110" width="140" height="10"/>
    <rect x="90" y="120" width="140" height="10"/>
    <rect x="100" y="130" width="120" height="10"/>
  </g>
  <g id="face" fill="#F3C99A">
    <rect x="110" y="60" width="100" height="10"/>
    <rect x="100" y="70" width="120" height="10"/>
    <rect x="100" y="80" width="120" height="10"/>
    <rect x="100" y="90" width="120" height="10"/>
    <rect x="100" y="100" width="120" height="10"/>
    <rect x="100" y="110" width="120" height="10"/>
    <rect x="110" y="120" width="100" height="10"/>
  </g>
  <g id="hair" fill="#3B2A1E">
    <rect x="110" y="60" width="100" height="10"/>
    <rect x="100" y="70" width="20" height="10"/>
    <rect x="200" y="70" width="20" height="10"/>
  </g>
  <g id="beard" fill="#5A3D28">
    <rect x="110" y="120" width="100" height="10"/>
    <rect x="100" y="110" width="20" height="10"/>
    <rect x="200" y="110" width="20" height="10"/>
  </g>
  <g id="suit" fill="#3A5FA0">
    <rect x="80" y="170" width="160" height="10"/>
    <rect x="80" y="180" width="160" height="10"/>
    <rect x="80" y="190" width="160" height="10"/>
    <rect x="80" y="200" width="160" height="10"/>
    <rect x="80" y="210" width="160" height="10"/>
    <rect x="80" y="220" width="160" height="10"/>
    <rect x="80" y="230" width="160" height="10"/>
    <rect x="80" y="240" width="160" height="10"/>
    <rect x="80" y="250" width="160" height="10"/>
    <rect x="90" y="260" width="140" height="10"/>
    <rect x="90" y="270" width="140" height="10"/>
    <rect x="90" y="280" width="140" height="10"/>
  </g>
  <g id="backpack" fill="#2A3F60">
    <rect x="220" y="180" width="60" height="10"/>
    <rect x="220" y="190" width="60" height="10"/>
    <rect x="220" y="200" width="60" height="10"/>
    <rect x="220" y="210" width="60" height="10"/>
    <rect x="220" y="220" width="60" height="10"/>
    <rect x="220" y="230" width="60" height="10"/>
    <rect x="220" y="240" width="60" height="10"/>
  </g>
  <g id="suit-arms" fill="#2E4F88">
    <rect x="50" y="180" width="30" height="10"/>
    <rect x="50" y="190" width="30" height="10"/>
    <rect x="50" y="200" width="30" height="10"/>
    <rect x="50" y="210" width="30" height="10"/>
    <rect x="50" y="220" width="30" height="10"/>
    <rect x="50" y="230" width="30" height="10"/>
    <rect x="50" y="240" width="30" height="10"/>
    <rect x="50" y="250" width="30" height="10"/>
    <rect x="40" y="240" width="40" height="10"/>
    <rect x="40" y="250" width="30" height="10"/>
    <rect x="40" y="260" width="30" height="10"/>
    <rect x="40" y="270" width="30" height="10"/>
    <rect x="40" y="280" width="30" height="10"/>
    <rect x="240" y="180" width="30" height="10"/>
    <rect x="240" y="190" width="30" height="10"/>
    <rect x="240" y="200" width="30" height="10"/>
    <rect x="240" y="210" width="30" height="10"/>
    <rect x="240" y="220" width="30" height="10"/>
    <rect x="240" y="230" width="30" height="10"/>
    <rect x="240" y="240" width="30" height="10"/>
    <rect x="240" y="250" width="30" height="10"/>
    <rect x="240" y="240" width="40" height="10"/>
    <rect x="240" y="250" width="30" height="10"/>
    <rect x="240" y="260" width="30" height="10"/>
    <rect x="240" y="270" width="30" height="10"/>
    <rect x="240" y="280" width="30" height="10"/>
  </g>
  <g id="gloves" fill="#1A2A3A">
    <rect x="40" y="290" width="40" height="10"/>
    <rect x="40" y="300" width="40" height="10"/>
    <rect x="240" y="290" width="40" height="10"/>
    <rect x="240" y="300" width="40" height="10"/>
  </g>
  <g id="suit-legs" fill="#2E4F88">
    <rect x="100" y="290" width="50" height="10"/>
    <rect x="100" y="300" width="50" height="10"/>
    <rect x="100" y="310" width="50" height="10"/>
    <rect x="100" y="320" width="50" height="10"/>
    <rect x="100" y="330" width="50" height="10"/>
    <rect x="100" y="340" width="50" height="10"/>
    <rect x="100" y="350" width="50" height="10"/>
    <rect x="100" y="360" width="50" height="10"/>
    <rect x="100" y="370" width="50" height="10"/>
    <rect x="100" y="380" width="50" height="10"/>
    <rect x="100" y="390" width="50" height="10"/>
    <rect x="100" y="400" width="50" height="10"/>
    <rect x="170" y="290" width="50" height="10"/>
    <rect x="170" y="300" width="50" height="10"/>
    <rect x="170" y="310" width="50" height="10"/>
    <rect x="170" y="320" width="50" height="10"/>
    <rect x="170" y="330" width="50" height="10"/>
    <rect x="170" y="340" width="50" height="10"/>
    <rect x="170" y="350" width="50" height="10"/>
    <rect x="170" y="360" width="50" height="10"/>
    <rect x="170" y="370" width="50" height="10"/>
    <rect x="170" y="380" width="50" height="10"/>
    <rect x="170" y="390" width="50" height="10"/>
    <rect x="170" y="400" width="50" height="10"/>
  </g>
  <g id="boots" fill="#1C2A36">
    <rect x="90" y="410" width="70" height="10"/>
    <rect x="90" y="420" width="70" height="10"/>
    <rect x="90" y="430" width="70" height="10"/>
    <rect x="90" y="440" width="70" height="10"/>
    <rect x="80" y="450" width="80" height="10"/>
    <rect x="170" y="410" width="70" height="10"/>
    <rect x="170" y="420" width="70" height="10"/>
    <rect x="170" y="430" width="70" height="10"/>
    <rect x="170" y="440" width="70" height="10"/>
    <rect x="160" y="450" width="80" height="10"/>
  </g>
  <g id="detail" fill="#FFFFFF">
    <rect x="130" y="200" width="60" height="10"/>
    <rect x="130" y="220" width="60" height="10"/>
    <rect x="110" y="80" width="10" height="10"/>
    <rect x="120" y="70" width="10" height="10"/>
  </g>
</svg>
