<svg xmlns="http://www.w3.org/2000/svg" xmlns:xlink="http://www.w3.org/1999/xlink" width="500" zoomAndPan="magnify" viewBox="0 0 375 374.999991" height="500" preserveAspectRatio="xMidYMid meet" version="1.0"><defs><clipPath id="5c68c025f2"><path d="M 28.007812 25.78125 L 346.757812 25.78125 L 346.757812 349 L 28.007812 349 Z M 28.007812 25.78125 " clip-rule="nonzero"/></clipPath></defs><g clip-path="url(#5c68c025f2)"><path fill="#000000" d="M 300.078125 316.535156 C 232.898438 359.914062 141.128906 359.605469 74.46875 316.136719 C 64.820312 309.84375 60.90625 298.519531 64.753906 288.453125 C 70.539062 276.03125 72.921875 260.722656 81.121094 249.195312 C 71.277344 236.796875 64.160156 224.265625 59.453125 209.386719 C 58.109375 205.144531 31.726562 208.609375 29.136719 183.757812 C 27.015625 163.378906 25.210938 134.007812 50.785156 130.277344 C 52.433594 130.039062 57.003906 129.769531 57.507812 127.871094 C 69.410156 83.625 98.886719 49.230469 142.511719 33.746094 C 215.515625 7.828125 295.101562 48.234375 316.367188 124.585938 C 317.1875 127.539062 318.453125 129.664062 321.785156 129.882812 C 334.445312 130.722656 344.335938 139.394531 345.839844 152.183594 C 347.070312 162.664062 347.070312 172.949219 345.894531 183.417969 C 343.035156 208.878906 316.578125 204.949219 315.179688 209.5 C 310.59375 224.457031 304.296875 237.597656 293.40625 249.480469 C 299.394531 256.386719 301.738281 263.222656 303.527344 271.441406 C 304.796875 277.296875 322.390625 302.132812 300.082031 316.535156 L 300.074219 316.535156 Z M 229.238281 97.855469 L 241.929688 51.910156 C 208 34.617188 166.96875 34.363281 133.113281 51.925781 L 145.644531 97.589844 C 173.539062 92.09375 200.917969 92.066406 229.234375 97.855469 Z M 290.0625 136.214844 C 296.097656 161.339844 295.707031 186.214844 289.503906 210.484375 C 285.085938 227.75 268.363281 235.222656 251.90625 240.710938 C 210.828125 256.414062 105.113281 258.703125 85.851562 210.847656 C 79.292969 186.414062 79.160156 161.183594 84.980469 136.566406 C 90.566406 112.960938 112.902344 107.871094 133.109375 100.644531 C 129.679688 85.964844 126.867188 73.128906 121.523438 58.609375 C 69.121094 92.535156 54.640625 157.449219 74.890625 214.238281 C 101.703125 279.738281 191.023438 289.382812 249.761719 264.597656 C 331.757812 230.464844 325.015625 102.535156 253.640625 58.734375 C 247.625 72.480469 245.957031 85.894531 241.503906 100.703125 C 261.300781 107.515625 284.183594 111.730469 290.070312 136.214844 Z M 266.523438 220.421875 C 287.160156 208.230469 282.710938 158.316406 277.335938 138.039062 C 260.054688 97.175781 144.230469 101.023438 110.710938 123.144531 C 86.449219 134.996094 92.398438 187.511719 98.878906 209.519531 C 126.761719 248.25 229.738281 244.15625 266.53125 220.414062 L 266.527344 220.414062 Z M 332.894531 153.699219 C 331.992188 146.800781 326.570312 142.1875 320.1875 142.820312 C 323.261719 160.628906 321.410156 176.597656 319.738281 193.683594 C 337.5625 195.132812 334.320312 164.65625 332.890625 153.703125 Z M 55.910156 193.34375 C 52.582031 175.328125 52.882812 160.011719 54.417969 143.101562 C 37.679688 141.554688 41.359375 170.027344 42.089844 181.40625 C 42.554688 188.710938 47.980469 194.355469 55.910156 193.339844 Z M 292.582031 306.644531 C 306.375 298.144531 293.582031 283.167969 291.539062 276.675781 C 289.566406 270.398438 289.132812 264.011719 283.601562 258.894531 C 232.015625 300.558594 140.902344 299.929688 90.984375 258.265625 C 87.050781 263.035156 83.984375 269.613281 84.863281 275.789062 C 115.234375 300.703125 149.183594 308.121094 187.71875 310.039062 C 191.941406 310.253906 193.792969 314.679688 193.011719 317.894531 C 192.402344 320.40625 189.796875 322.28125 186.054688 322.242188 C 147.578125 321.832031 110.71875 310.988281 79.203125 288.175781 C 74.300781 293.925781 75.96875 302.050781 82.667969 306.347656 C 145.335938 345.984375 229.320312 346.167969 292.582031 306.636719 Z M 292.582031 306.644531 " fill-opacity="1" fill-rule="nonzero"/></g><path fill="#000000" d="M 167.417969 128.605469 C 167.777344 140.367188 153.964844 128.941406 129.703125 145.996094 C 126.648438 148.136719 121.878906 146.523438 120.902344 144.042969 C 119.613281 140.757812 120.597656 137.355469 123.871094 135.070312 C 133.835938 128.105469 167.007812 114.792969 167.421875 128.609375 L 167.417969 128.609375 Z M 167.417969 128.605469 " fill-opacity="1" fill-rule="nonzero"/><path fill="#000000" d="M 118.980469 160.246094 C 121.796875 164.875 121.910156 175.839844 115.449219 176.742188 C 113.457031 177.023438 110.257812 176.472656 109.21875 173.605469 C 106.242188 166.457031 109.515625 154.804688 118.980469 160.238281 Z M 118.980469 160.246094 " fill-opacity="1" fill-rule="nonzero"/></svg>
