<svg xmlns="http://www.w3.org/2000/svg" xmlns:xlink="http://www.w3.org/1999/xlink" width="300" zoomAndPan="magnify" viewBox="0 0 224.87999 60" height="80" preserveAspectRatio="xMidYMid meet" version="1.0"><defs><clipPath id="82de917a2c"><path d="M 0 0.015625 L 220 0.015625 L 220 59.984375 L 0 59.984375 Z M 0 0.015625 " clip-rule="nonzero"/></clipPath><clipPath id="601d31a2cf"><path d="M 54.433594 15.972656 L 216 15.972656 L 216 43 L 54.433594 43 Z M 54.433594 15.972656 " clip-rule="nonzero"/></clipPath><clipPath id="113fa2aa9b"><path d="M 122 15.972656 L 219 15.972656 L 219 43.402344 L 122 43.402344 Z M 122 15.972656 " clip-rule="nonzero"/></clipPath><clipPath id="28e3480d6c"><path d="M 2.960938 10.046875 L 42.859375 10.046875 L 42.859375 49.109375 L 2.960938 49.109375 Z M 2.960938 10.046875 " clip-rule="nonzero"/></clipPath><clipPath id="e9e6885abb"><path d="M 26 10.046875 L 42.859375 10.046875 L 42.859375 49.109375 L 26 49.109375 Z M 26 10.046875 " clip-rule="nonzero"/></clipPath><clipPath id="ccd6d5c6a2"><rect x="0" width="220" y="0" height="60"/></clipPath></defs><g clip-path="url(#82de917a2c)"><g transform="matrix(1, 0, 0, 1, -0, -0.000000000000011803)"><g clip-path="url(#ccd6d5c6a2)"><g clip-path="url(#601d31a2cf)"><path fill="#fefefe" d="M 113 -87.453125 C 113.125 -87.453125 113.25 -87.453125 113.378906 -87.449219 C 111.941406 -84.835938 110.953125 -81.945312 110.503906 -78.878906 C 93.253906 -77.601562 79.65625 -63.207031 79.65625 -45.628906 C 79.65625 -27.214844 94.582031 -12.285156 113 -12.285156 C 131.414062 -12.285156 146.34375 -27.214844 146.34375 -45.628906 C 146.34375 -47.652344 146.160156 -49.628906 145.816406 -51.546875 C 148.636719 -52.742188 151.195312 -54.425781 153.394531 -56.496094 C 154.324219 -53.03125 154.820312 -49.390625 154.820312 -45.628906 C 154.820312 -22.53125 136.097656 -3.808594 113 -3.808594 C 89.898438 -3.808594 71.175781 -22.53125 71.175781 -45.628906 C 71.175781 -68.730469 89.898438 -87.453125 113 -87.453125 Z M 215.824219 41.738281 L 205.300781 18.246094 L 203.320312 18.246094 L 192.800781 41.738281 L 194.742188 41.738281 L 197.289062 35.972656 L 211.296875 35.972656 L 213.878906 41.738281 Z M 197.992188 34.296875 L 204.292969 19.992188 L 210.59375 34.296875 Z M 165.289062 41.738281 L 167.097656 41.738281 L 167.097656 19.921875 L 175.578125 19.921875 L 175.578125 18.3125 L 156.808594 18.3125 L 156.808594 19.921875 L 165.289062 19.921875 Z M 137.242188 41.738281 L 137.242188 18.246094 L 135.464844 18.246094 L 135.464844 41.738281 Z M 98.570312 30.609375 C 101.386719 30.609375 103.796875 30.609375 106.613281 30.609375 C 109.761719 30.609375 113.082031 31.917969 113.113281 35.570312 C 113.113281 39.289062 109.328125 39.992188 106.378906 39.992188 L 98.570312 39.992188 Z M 98.570312 19.785156 L 106.378906 19.785156 C 109.292969 19.785156 112.378906 21.234375 112.378906 24.664062 C 112.378906 28.03125 109.429688 28.902344 106.613281 28.902344 L 98.570312 28.902344 Z M 106.378906 18.246094 C 102.960938 18.246094 100.144531 18.246094 96.761719 18.246094 L 96.761719 41.738281 C 100.179688 41.738281 102.960938 41.738281 106.378906 41.738281 C 110.398438 41.738281 114.890625 40.429688 114.890625 35.605469 C 114.890625 32.890625 113.214844 30.511719 110.265625 29.707031 C 112.613281 28.96875 114.085938 27.085938 114.085938 24.664062 C 114.085938 20.1875 110.332031 18.246094 106.378906 18.246094 Z M 69.214844 32.753906 C 74.34375 32.753906 76.855469 29.398438 76.824219 25.566406 C 76.789062 21.902344 74.210938 18.246094 69.117188 18.246094 C 65.664062 18.246094 62.246094 18.246094 58.792969 18.246094 L 58.792969 41.738281 L 60.601562 41.738281 L 60.601562 32.855469 L 67.003906 32.855469 L 75.113281 41.738281 L 77.492188 41.738281 Z M 60.605469 19.921875 L 69.117188 19.921875 C 73.003906 19.921875 74.878906 22.773438 74.847656 25.535156 C 74.8125 28.828125 73.003906 31.148438 68.914062 31.148438 L 60.601562 31.148438 L 60.601562 19.921875 Z M 26.421875 17.910156 C 18.515625 17.910156 14.59375 23.671875 14.59375 29.972656 C 14.59375 36.171875 18.546875 42.140625 26.421875 42.140625 C 34.300781 42.140625 38.21875 36.207031 38.253906 30.042969 C 38.285156 23.707031 34.332031 17.910156 26.421875 17.910156 Z M 26.421875 19.585938 C 33.160156 19.585938 36.511719 24.578125 36.511719 30.007812 C 36.511719 35.300781 33.125 40.464844 26.421875 40.464844 C 19.753906 40.464844 16.402344 35.300781 16.371094 30.007812 C 16.335938 24.476562 19.6875 19.585938 26.421875 19.585938 Z M 26.421875 19.585938 " fill-opacity="1" fill-rule="evenodd"/></g><g clip-path="url(#113fa2aa9b)"><path fill="#fefefe" d="M 135.84375 -88.882812 C 143.429688 -88.882812 149.582031 -82.734375 149.582031 -75.144531 C 149.582031 -67.554688 143.429688 -61.402344 135.84375 -61.402344 C 128.253906 -61.402344 122.101562 -67.554688 122.101562 -75.144531 C 122.101562 -82.734375 128.253906 -88.882812 135.84375 -88.882812 Z M 208.566406 61.480469 C 210.34375 61.480469 211.871094 61.480469 213.648438 61.480469 C 215.640625 61.480469 217.738281 62.308594 217.757812 64.617188 C 217.757812 66.96875 215.367188 67.410156 213.5 67.410156 L 208.566406 67.410156 Z M 208.566406 54.640625 L 213.5 54.640625 C 215.34375 54.640625 217.292969 55.554688 217.292969 57.722656 C 217.292969 59.851562 215.429688 60.402344 213.648438 60.402344 L 208.566406 60.402344 Z M 213.5 53.664062 C 211.339844 53.664062 209.5625 53.664062 207.421875 53.664062 L 207.421875 68.511719 C 209.582031 68.511719 211.339844 68.511719 213.5 68.511719 C 216.042969 68.511719 218.882812 67.6875 218.882812 64.636719 C 218.882812 62.921875 217.824219 61.417969 215.957031 60.910156 C 217.441406 60.441406 218.375 59.253906 218.375 57.722656 C 218.375 54.894531 216 53.664062 213.5 53.664062 Z M 198.738281 53.664062 L 198.738281 62.878906 C 198.738281 69.234375 189.632812 69.253906 189.632812 62.878906 L 189.632812 53.664062 L 188.507812 53.664062 L 188.507812 62.878906 C 188.507812 70.652344 199.863281 70.632812 199.863281 62.878906 L 199.863281 53.664062 Z M 180.820312 68.511719 L 180.820312 53.664062 L 179.675781 53.664062 L 179.675781 60.738281 L 170.230469 60.738281 L 170.230469 53.664062 L 169.085938 53.664062 L 169.085938 68.511719 L 170.230469 68.511719 L 170.230469 61.777344 L 179.675781 61.777344 L 179.675781 68.511719 Z M 180.820312 68.511719 " fill-opacity="1" fill-rule="evenodd"/></g><g clip-path="url(#28e3480d6c)"><path fill="#fefefe" d="M 22.660156 10.6875 C 22.71875 10.6875 22.777344 10.6875 22.835938 10.6875 C 22.171875 11.902344 21.710938 13.242188 21.503906 14.667969 C 13.496094 15.261719 7.183594 21.941406 7.183594 30.101562 C 7.183594 38.648438 14.113281 45.582031 22.660156 45.582031 C 31.210938 45.582031 38.140625 38.648438 38.140625 30.101562 C 38.140625 29.164062 38.054688 28.246094 37.894531 27.355469 C 39.207031 26.800781 40.394531 26.019531 41.414062 25.058594 C 41.84375 26.667969 42.078125 28.355469 42.078125 30.101562 C 42.078125 40.824219 33.382812 49.515625 22.660156 49.515625 C 11.9375 49.515625 3.246094 40.824219 3.246094 30.101562 C 3.246094 19.378906 11.9375 10.6875 22.660156 10.6875 Z M 70.394531 70.660156 L 65.507812 59.753906 L 64.589844 59.753906 L 59.707031 70.660156 L 60.609375 70.660156 L 61.789062 67.984375 L 68.292969 67.984375 L 69.492188 70.660156 Z M 62.117188 67.203125 L 65.042969 60.566406 L 67.964844 67.203125 Z M 46.933594 70.660156 L 47.773438 70.660156 L 47.773438 60.53125 L 51.710938 60.53125 L 51.710938 59.785156 L 43 59.785156 L 43 60.53125 L 46.933594 60.53125 Z M 33.914062 70.660156 L 33.914062 59.753906 L 33.089844 59.753906 L 33.089844 70.660156 Z M 15.964844 65.492188 C 17.269531 65.492188 18.390625 65.492188 19.699219 65.492188 C 21.160156 65.492188 22.699219 66.101562 22.714844 67.796875 C 22.714844 69.523438 20.957031 69.847656 19.589844 69.847656 L 15.964844 69.847656 Z M 15.964844 60.46875 L 19.589844 60.46875 C 20.941406 60.46875 22.375 61.140625 22.375 62.730469 C 22.375 64.296875 21.003906 64.699219 19.699219 64.699219 L 15.964844 64.699219 Z M 19.589844 59.753906 C 18.003906 59.753906 16.695312 59.753906 15.125 59.753906 L 15.125 70.660156 C 16.710938 70.660156 18.003906 70.660156 19.589844 70.660156 C 21.457031 70.660156 23.539062 70.050781 23.539062 67.8125 C 23.539062 66.550781 22.761719 65.445312 21.394531 65.074219 C 22.480469 64.730469 23.167969 63.859375 23.167969 62.730469 C 23.167969 60.65625 21.425781 59.753906 19.589844 59.753906 Z M 2.335938 66.488281 C 4.71875 66.488281 5.882812 64.929688 5.867188 63.152344 C 5.851562 61.453125 4.65625 59.753906 2.289062 59.753906 C 0.6875 59.753906 -0.898438 59.753906 -2.5 59.753906 L -2.5 70.660156 L -1.660156 70.660156 L -1.660156 66.535156 L 1.3125 66.535156 L 5.074219 70.660156 L 6.179688 70.660156 Z M -1.660156 60.53125 L 2.289062 60.53125 C 4.09375 60.53125 4.964844 61.855469 4.949219 63.136719 C 4.933594 64.667969 4.09375 65.742188 2.199219 65.742188 L -1.660156 65.742188 Z M -17.527344 59.597656 C -21.199219 59.597656 -23.019531 62.273438 -23.019531 65.199219 C -23.019531 68.074219 -21.183594 70.84375 -17.527344 70.84375 C -13.871094 70.84375 -12.050781 68.089844 -12.035156 65.230469 C -12.019531 62.289062 -13.855469 59.597656 -17.527344 59.597656 Z M -17.527344 60.375 C -14.398438 60.375 -12.84375 62.695312 -12.84375 65.214844 C -12.84375 67.671875 -14.414062 70.066406 -17.527344 70.066406 C -20.621094 70.066406 -22.179688 67.671875 -22.195312 65.214844 C -22.210938 62.648438 -20.652344 60.375 -17.527344 60.375 Z M -17.527344 60.375 " fill-opacity="1" fill-rule="evenodd"/></g><g clip-path="url(#e9e6885abb)"><path fill="#fefefe" d="M 33.265625 10.023438 C 36.789062 10.023438 39.644531 12.878906 39.644531 16.402344 C 39.644531 19.925781 36.789062 22.78125 33.265625 22.78125 C 29.742188 22.78125 26.886719 19.925781 26.886719 16.402344 C 26.886719 12.878906 29.742188 10.023438 33.265625 10.023438 Z M 67.023438 79.824219 C 67.851562 79.824219 68.558594 79.824219 69.386719 79.824219 C 70.308594 79.824219 71.28125 80.207031 71.292969 81.277344 C 71.292969 82.371094 70.179688 82.578125 69.316406 82.578125 L 67.023438 82.578125 Z M 67.023438 76.648438 L 69.316406 76.648438 C 70.171875 76.648438 71.078125 77.074219 71.078125 78.078125 C 71.078125 79.066406 70.210938 79.324219 69.386719 79.324219 L 67.023438 79.324219 Z M 69.316406 76.195312 C 68.3125 76.195312 67.488281 76.195312 66.492188 76.195312 L 66.492188 83.089844 C 67.496094 83.089844 68.3125 83.089844 69.316406 83.089844 C 70.496094 83.089844 71.8125 82.703125 71.8125 81.289062 C 71.8125 80.492188 71.320312 79.792969 70.457031 79.558594 C 71.144531 79.34375 71.578125 78.789062 71.578125 78.078125 C 71.578125 76.765625 70.476562 76.195312 69.316406 76.195312 Z M 62.464844 76.195312 L 62.464844 80.472656 C 62.464844 83.421875 58.234375 83.433594 58.234375 80.472656 L 58.234375 76.195312 L 57.714844 76.195312 L 57.714844 80.472656 C 57.714844 84.082031 62.984375 84.070312 62.984375 80.472656 L 62.984375 76.195312 Z M 54.144531 83.089844 L 54.144531 76.195312 L 53.613281 76.195312 L 53.613281 79.480469 L 49.230469 79.480469 L 49.230469 76.195312 L 48.699219 76.195312 L 48.699219 83.089844 L 49.230469 83.089844 L 49.230469 79.960938 L 53.613281 79.960938 L 53.613281 83.089844 Z M 54.144531 83.089844 " fill-opacity="1" fill-rule="evenodd"/></g></g></g></g></svg>