<svg xmlns="http://www.w3.org/2000/svg" xmlns:xlink="http://www.w3.org/1999/xlink" width="500" zoomAndPan="magnify" viewBox="0 0 375 374.999991" height="500" preserveAspectRatio="xMidYMid meet" version="1.0"><defs><clipPath id="f2d9a112d1"><path d="M 158 280 L 217 280 L 217 372 L 158 372 Z M 158 280 " clip-rule="nonzero"/></clipPath><clipPath id="8b7707acb2"><path d="M -24.046875 201.566406 L 187.023438 -9.507812 L 398.097656 201.566406 L 187.023438 412.636719 Z M -24.046875 201.566406 " clip-rule="nonzero"/></clipPath><clipPath id="57fbfffbac"><path d="M -24.046875 201.566406 L 187.023438 -9.507812 L 398.097656 201.566406 L 187.023438 412.636719 Z M -24.046875 201.566406 " clip-rule="nonzero"/></clipPath><clipPath id="82843c551d"><path d="M 84 3 L 290 3 L 290 313 L 84 313 Z M 84 3 " clip-rule="nonzero"/></clipPath><clipPath id="f61b84614e"><path d="M -24.046875 201.566406 L 187.023438 -9.507812 L 398.097656 201.566406 L 187.023438 412.636719 Z M -24.046875 201.566406 " clip-rule="nonzero"/></clipPath><clipPath id="f62f523462"><path d="M -24.046875 201.566406 L 187.023438 -9.507812 L 398.097656 201.566406 L 187.023438 412.636719 Z M -24.046875 201.566406 " clip-rule="nonzero"/></clipPath><clipPath id="c1c19d42ea"><path d="M 147.398438 155.902344 L 228.398438 155.902344 L 228.398438 221.902344 L 147.398438 221.902344 Z M 147.398438 155.902344 " clip-rule="nonzero"/></clipPath></defs><g clip-path="url(#f2d9a112d1)"><g clip-path="url(#8b7707acb2)"><g clip-path="url(#57fbfffbac)"><path fill="#7a1fe7" d="M 164.539062 280.457031 C 158.09375 280.460938 158.5 283.292969 158.5 284.726562 C 158.5 321.832031 186.792969 383.066406 191.128906 369.984375 C 206.910156 322.371094 216.933594 321.828125 216.933594 284.726562 C 216.933594 283.292969 217.398438 280.460938 210.769531 280.460938 Z M 164.539062 280.457031 " fill-opacity="1" fill-rule="nonzero"/></g></g></g><g clip-path="url(#82843c551d)"><g clip-path="url(#f61b84614e)"><g clip-path="url(#f62f523462)"><path fill="#7a1fe7" d="M 264.304688 180.195312 C 260.785156 178.359375 261.257812 175.308594 261.199219 173.769531 C 257.9375 88.613281 225.066406 3.691406 186.492188 3.691406 C 148.128906 3.691406 117.828125 87.558594 114.285156 172.40625 C 114.214844 174.085938 114.019531 177.332031 110.292969 179.773438 L 93.242188 190.261719 C 88.511719 193.175781 84.636719 200.109375 84.636719 205.664062 L 84.636719 306.714844 C 84.636719 312.273438 88.3125 314.144531 92.804688 310.871094 L 135.089844 280.070312 C 139.585938 276.796875 143.261719 269.574219 143.257812 264.015625 C 143.257812 264.015625 143.253906 260.238281 147.042969 260.238281 C 167.945312 260.238281 206.789062 260.238281 226.703125 260.238281 C 230.660156 260.238281 230.648438 264.015625 230.648438 264.015625 C 230.648438 269.574219 234.324219 276.796875 238.816406 280.070312 L 281.101562 310.871094 C 285.59375 314.144531 289.269531 312.273438 289.269531 306.714844 L 289.269531 205.664062 C 289.269531 200.105469 285.398438 193.175781 280.664062 190.265625 Z M 187.714844 126.234375 C 170.601562 126.234375 156.726562 112.359375 156.726562 95.246094 C 156.726562 78.128906 170.601562 64.257812 187.71875 64.257812 C 204.828125 64.253906 218.703125 78.128906 218.703125 95.242188 C 218.703125 112.359375 204.828125 126.234375 187.714844 126.234375 Z M 187.714844 126.234375 " fill-opacity="1" fill-rule="nonzero"/></g></g></g><path fill="#ffffff" d="M 187.964844 190.089844 C 189.441406 190.089844 190.8125 190.367188 192.074219 190.921875 C 193.335938 191.476562 194.445312 192.230469 195.402344 193.1875 C 196.355469 194.140625 197.109375 195.25 197.664062 196.511719 C 198.21875 197.773438 198.496094 199.144531 198.496094 200.625 C 198.496094 202.101562 198.21875 203.472656 197.664062 204.734375 C 197.109375 206 196.355469 207.105469 195.402344 208.0625 C 194.445312 209.015625 193.335938 209.769531 192.074219 210.324219 C 190.8125 210.878906 189.441406 211.15625 187.964844 211.15625 C 186.484375 211.15625 185.113281 210.878906 183.851562 210.324219 C 182.589844 209.769531 181.480469 209.015625 180.527344 208.0625 C 179.570312 207.105469 178.816406 206 178.261719 204.734375 C 177.707031 203.472656 177.429688 202.101562 177.429688 200.625 C 177.429688 199.144531 177.707031 197.773438 178.261719 196.511719 C 178.816406 195.25 179.570312 194.140625 180.527344 193.1875 C 181.480469 192.230469 182.589844 191.476562 183.851562 190.921875 C 185.113281 190.367188 186.484375 190.089844 187.964844 190.089844 Z M 187.964844 190.089844 " fill-opacity="1" fill-rule="evenodd"/><g clip-path="url(#c1c19d42ea)"><path fill="#ffffff" d="M 227.96875 213.558594 C 228.648438 215.039062 228.695312 216.53125 228.109375 218.039062 C 227.523438 219.550781 226.492188 220.640625 225.011719 221.320312 C 224.273438 221.691406 223.472656 221.875 222.609375 221.875 C 221.503906 221.875 220.453125 221.566406 219.46875 220.949219 C 218.484375 220.335938 217.746094 219.503906 217.253906 218.457031 L 196.742188 173.277344 C 195.941406 171.550781 194.738281 170.195312 193.136719 169.210938 C 191.535156 168.226562 189.8125 167.730469 187.964844 167.730469 C 186.054688 167.730469 184.3125 168.226562 182.742188 169.210938 C 181.171875 170.195312 179.988281 171.550781 179.1875 173.277344 L 158.582031 218.457031 C 157.90625 219.933594 156.8125 220.949219 155.300781 221.503906 C 153.792969 222.058594 152.300781 221.996094 150.820312 221.320312 C 149.34375 220.640625 148.328125 219.550781 147.773438 218.039062 C 147.21875 216.53125 147.28125 215.039062 147.957031 213.558594 L 168.46875 168.472656 C 170.253906 164.652344 172.886719 161.601562 176.367188 159.324219 C 179.847656 157.046875 183.714844 155.90625 187.964844 155.90625 C 192.152344 155.90625 196 157.046875 199.511719 159.324219 C 203.023438 161.601562 205.640625 164.652344 207.367188 168.472656 Z M 227.96875 213.558594 " fill-opacity="1" fill-rule="nonzero"/></g></svg>