<svg xmlns="http://www.w3.org/2000/svg" xmlns:xlink="http://www.w3.org/1999/xlink" width="1024" zoomAndPan="magnify" viewBox="0 0 768 383.999986" height="512" preserveAspectRatio="xMidYMid meet" version="1.0"><defs><clipPath id="288766baf2"><path d="M 30.609375 48.953125 L 735.335938 48.953125 L 735.335938 340.878906 L 30.609375 340.878906 Z M 30.609375 48.953125 " clip-rule="nonzero"/></clipPath><clipPath id="5dbfe3ab6d"><path d="M 75.609375 48.953125 L 690.097656 48.953125 C 714.949219 48.953125 735.097656 69.101562 735.097656 93.953125 L 735.097656 295.878906 C 735.097656 320.730469 714.949219 340.878906 690.097656 340.878906 L 75.609375 340.878906 C 50.753906 340.878906 30.609375 320.730469 30.609375 295.878906 L 30.609375 93.953125 C 30.609375 69.101562 50.753906 48.953125 75.609375 48.953125 Z M 75.609375 48.953125 " clip-rule="nonzero"/></clipPath><clipPath id="e22e565ade"><path d="M 0.609375 0.953125 L 705.121094 0.953125 L 705.121094 292.878906 L 0.609375 292.878906 Z M 0.609375 0.953125 " clip-rule="nonzero"/></clipPath><clipPath id="31d074db9e"><path d="M 45.609375 0.953125 L 660.097656 0.953125 C 684.949219 0.953125 705.097656 21.101562 705.097656 45.953125 L 705.097656 247.878906 C 705.097656 272.730469 684.949219 292.878906 660.097656 292.878906 L 45.609375 292.878906 C 20.753906 292.878906 0.609375 272.730469 0.609375 247.878906 L 0.609375 45.953125 C 0.609375 21.101562 20.753906 0.953125 45.609375 0.953125 Z M 45.609375 0.953125 " clip-rule="nonzero"/></clipPath><clipPath id="0a16bd0b3b"><rect x="0" width="706" y="0" height="293"/></clipPath><clipPath id="fbce8458f4"><path d="M 30.609375 48.953125 L 734.859375 48.953125 L 734.859375 340.703125 L 30.609375 340.703125 Z M 30.609375 48.953125 " clip-rule="nonzero"/></clipPath><clipPath id="d7726cadcc"><path d="M 75.609375 48.953125 L 690.09375 48.953125 C 714.945312 48.953125 735.09375 69.101562 735.09375 93.953125 L 735.09375 295.878906 C 735.09375 320.730469 714.945312 340.878906 690.09375 340.878906 L 75.609375 340.878906 C 50.753906 340.878906 30.609375 320.730469 30.609375 295.878906 L 30.609375 93.953125 C 30.609375 69.101562 50.753906 48.953125 75.609375 48.953125 Z M 75.609375 48.953125 " clip-rule="nonzero"/></clipPath><clipPath id="24f4d0272a"><path d="M 138 218 L 182 218 L 182 287 L 138 287 Z M 138 218 " clip-rule="nonzero"/></clipPath><clipPath id="ea3f18fe65"><path d="M 1.128906 159.257812 L 159.125 1.261719 L 317.125 159.257812 L 159.125 317.257812 Z M 1.128906 159.257812 " clip-rule="nonzero"/></clipPath><clipPath id="3225801c17"><path d="M 1.128906 159.257812 L 159.125 1.261719 L 317.125 159.257812 L 159.125 317.257812 Z M 1.128906 159.257812 " clip-rule="nonzero"/></clipPath><clipPath id="ab284d53ef"><path d="M 82 10 L 237 10 L 237 243 L 82 243 Z M 82 10 " clip-rule="nonzero"/></clipPath><clipPath id="3ff2dbfd2b"><path d="M 1.128906 159.257812 L 159.125 1.261719 L 317.125 159.257812 L 159.125 317.257812 Z M 1.128906 159.257812 " clip-rule="nonzero"/></clipPath><clipPath id="d64ed73f07"><path d="M 1.128906 159.257812 L 159.125 1.261719 L 317.125 159.257812 L 159.125 317.257812 Z M 1.128906 159.257812 " clip-rule="nonzero"/></clipPath><clipPath id="931ed0cb15"><path d="M 129.691406 125.019531 L 190.578125 125.019531 L 190.578125 174.675781 L 129.691406 174.675781 Z M 129.691406 125.019531 " clip-rule="nonzero"/></clipPath><clipPath id="d0afcac786"><rect x="0" width="277" y="0" height="318"/></clipPath></defs><g clip-path="url(#288766baf2)"><g clip-path="url(#5dbfe3ab6d)"><g transform="matrix(1, 0, 0, 1, 30, 48)"><g clip-path="url(#0a16bd0b3b)"><g clip-path="url(#e22e565ade)"><g clip-path="url(#31d074db9e)"><path fill="#1a0a3d" d="M 0.609375 0.953125 L 705.335938 0.953125 L 705.335938 292.878906 L 0.609375 292.878906 Z M 0.609375 0.953125 " fill-opacity="1" fill-rule="nonzero"/></g></g></g></g></g></g><g clip-path="url(#fbce8458f4)"><g clip-path="url(#d7726cadcc)"><path stroke-linecap="butt" transform="matrix(0.75, 0, 0, 0.75, 30.608578, 48.952614)" fill="none" stroke-linejoin="miter" d="M 60.001064 0.000681701 L 879.313577 0.000681701 C 912.448994 0.000681701 939.313577 26.865265 939.313577 60.000683 L 939.313577 329.235062 C 939.313577 362.370479 912.448994 389.235063 879.313577 389.235063 L 60.001064 389.235063 C 26.860439 389.235063 0.00106323 362.370479 0.00106323 329.235062 L 0.00106323 60.000683 C 0.00106323 26.865265 26.860439 0.000681701 60.001064 0.000681701 Z M 60.001064 0.000681701 " stroke="#7a1fe7" stroke-width="16" stroke-opacity="1" stroke-miterlimit="4"/></g></g><g transform="matrix(1, 0, 0, 1, 491, 47)"><g clip-path="url(#d0afcac786)"><g clip-path="url(#24f4d0272a)"><g clip-path="url(#ea3f18fe65)"><g clip-path="url(#3225801c17)"><path fill="#29125b" d="M 142.542969 218.417969 C 137.710938 218.421875 138.015625 220.542969 138.015625 221.617188 C 138.015625 249.441406 159.234375 295.363281 162.484375 285.554688 C 174.316406 249.847656 181.832031 249.441406 181.832031 221.621094 C 181.832031 220.542969 182.183594 218.421875 177.210938 218.421875 Z M 142.542969 218.417969 " fill-opacity="1" fill-rule="nonzero"/></g></g></g><g clip-path="url(#ab284d53ef)"><g clip-path="url(#3ff2dbfd2b)"><g clip-path="url(#d64ed73f07)"><path fill="#29125b" d="M 217.355469 143.234375 C 214.71875 141.859375 215.070312 139.570312 215.027344 138.414062 C 212.582031 74.558594 187.929688 10.878906 159.007812 10.878906 C 130.238281 10.878906 107.519531 73.769531 104.859375 137.394531 C 104.808594 138.652344 104.660156 141.089844 101.867188 142.917969 L 89.082031 150.785156 C 85.53125 152.96875 82.628906 158.167969 82.628906 162.335938 L 82.628906 238.109375 C 82.628906 242.277344 85.382812 243.679688 88.753906 241.226562 L 120.460938 218.128906 C 123.832031 215.675781 126.585938 210.257812 126.585938 206.089844 C 126.585938 206.089844 126.582031 203.257812 129.421875 203.257812 C 145.097656 203.257812 174.226562 203.257812 189.160156 203.257812 C 192.128906 203.257812 192.117188 206.089844 192.117188 206.089844 C 192.117188 210.257812 194.871094 215.675781 198.242188 218.128906 L 229.949219 241.226562 C 233.320312 243.679688 236.078125 242.277344 236.078125 238.109375 L 236.078125 162.332031 C 236.078125 158.167969 233.171875 152.96875 229.625 150.785156 Z M 159.921875 102.769531 C 147.089844 102.769531 136.6875 92.367188 136.6875 79.53125 C 136.6875 66.699219 147.089844 56.296875 159.925781 56.296875 C 172.757812 56.292969 183.160156 66.699219 183.160156 79.53125 C 183.160156 92.367188 172.757812 102.769531 159.921875 102.769531 Z M 159.921875 102.769531 " fill-opacity="1" fill-rule="nonzero"/></g></g></g><path fill="#1a0a3d" d="M 160.113281 150.65625 C 161.21875 150.65625 162.246094 150.863281 163.195312 151.277344 C 164.140625 151.695312 164.972656 152.257812 165.6875 152.976562 C 166.40625 153.691406 166.96875 154.523438 167.386719 155.46875 C 167.800781 156.414062 168.007812 157.445312 168.007812 158.550781 C 168.007812 159.660156 167.800781 160.6875 167.386719 161.636719 C 166.96875 162.582031 166.40625 163.414062 165.6875 164.128906 C 164.972656 164.84375 164.140625 165.410156 163.195312 165.828125 C 162.246094 166.242188 161.21875 166.449219 160.113281 166.449219 C 159.003906 166.449219 157.976562 166.242188 157.027344 165.828125 C 156.082031 165.410156 155.25 164.84375 154.535156 164.128906 C 153.820312 163.414062 153.253906 162.582031 152.835938 161.636719 C 152.421875 160.6875 152.214844 159.660156 152.214844 158.550781 C 152.214844 157.445312 152.421875 156.414062 152.835938 155.46875 C 153.253906 154.523438 153.820312 153.691406 154.535156 152.976562 C 155.25 152.257812 156.082031 151.695312 157.027344 151.277344 C 157.976562 150.863281 159.003906 150.65625 160.113281 150.65625 Z M 160.113281 150.65625 " fill-opacity="1" fill-rule="evenodd"/><g clip-path="url(#931ed0cb15)"><path fill="#1a0a3d" d="M 190.109375 168.25 C 190.617188 169.359375 190.652344 170.480469 190.214844 171.613281 C 189.773438 172.742188 189 173.5625 187.890625 174.070312 C 187.339844 174.347656 186.738281 174.488281 186.089844 174.488281 C 185.261719 174.488281 184.476562 174.253906 183.734375 173.792969 C 182.996094 173.332031 182.441406 172.707031 182.074219 171.921875 L 166.691406 138.046875 C 166.09375 136.753906 165.191406 135.734375 163.992188 134.996094 C 162.789062 134.257812 161.496094 133.886719 160.113281 133.886719 C 158.679688 133.886719 157.375 134.257812 156.195312 134.996094 C 155.019531 135.734375 154.128906 136.753906 153.53125 138.046875 L 138.082031 171.921875 C 137.574219 173.03125 136.753906 173.792969 135.621094 174.210938 C 134.488281 174.625 133.371094 174.578125 132.261719 174.070312 C 131.152344 173.5625 130.390625 172.742188 129.976562 171.613281 C 129.558594 170.480469 129.605469 169.359375 130.113281 168.25 L 145.492188 134.441406 C 146.832031 131.578125 148.808594 129.292969 151.417969 127.585938 C 154.027344 125.875 156.925781 125.019531 160.113281 125.019531 C 163.253906 125.019531 166.140625 125.875 168.769531 127.585938 C 171.402344 129.292969 173.367188 131.578125 174.660156 134.441406 Z M 190.109375 168.25 " fill-opacity="1" fill-rule="nonzero"/></g></g></g></svg>