<svg xmlns="http://www.w3.org/2000/svg" xmlns:xlink="http://www.w3.org/1999/xlink" width="1024" zoomAndPan="magnify" viewBox="0 0 768 383.999986" height="512" preserveAspectRatio="xMidYMid meet" version="1.0"><defs><clipPath id="c311294413"><path d="M 5.25 56.898438 L 763 56.898438 L 763 372.546875 L 5.25 372.546875 Z M 5.25 56.898438 " clip-rule="nonzero"/></clipPath><clipPath id="7b4761f476"><path d="M 50.25 56.898438 L 717.527344 56.898438 C 729.460938 56.898438 740.90625 61.640625 749.347656 70.082031 C 757.785156 78.519531 762.527344 89.964844 762.527344 101.898438 L 762.527344 327.546875 C 762.527344 339.480469 757.785156 350.925781 749.347656 359.367188 C 740.90625 367.804688 729.460938 372.546875 717.527344 372.546875 L 50.25 372.546875 C 38.316406 372.546875 26.871094 367.804688 18.429688 359.367188 C 9.992188 350.925781 5.25 339.480469 5.25 327.546875 L 5.25 101.898438 C 5.25 89.964844 9.992188 78.519531 18.429688 70.082031 C 26.871094 61.640625 38.316406 56.898438 50.25 56.898438 Z M 50.25 56.898438 " clip-rule="nonzero"/></clipPath><clipPath id="8108b2c5bf"><path d="M 0.25 0.898438 L 757.71875 0.898438 L 757.71875 316.546875 L 0.25 316.546875 Z M 0.25 0.898438 " clip-rule="nonzero"/></clipPath><clipPath id="03b265554f"><path d="M 45.25 0.898438 L 712.527344 0.898438 C 724.460938 0.898438 735.90625 5.640625 744.347656 14.082031 C 752.785156 22.519531 757.527344 33.964844 757.527344 45.898438 L 757.527344 271.546875 C 757.527344 283.480469 752.785156 294.925781 744.347656 303.367188 C 735.90625 311.804688 724.460938 316.546875 712.527344 316.546875 L 45.25 316.546875 C 33.316406 316.546875 21.871094 311.804688 13.429688 303.367188 C 4.992188 294.925781 0.25 283.480469 0.25 271.546875 L 0.25 45.898438 C 0.25 33.964844 4.992188 22.519531 13.429688 14.082031 C 21.871094 5.640625 33.316406 0.898438 45.25 0.898438 Z M 45.25 0.898438 " clip-rule="nonzero"/></clipPath><clipPath id="ba74bc5665"><rect x="0" width="758" y="0" height="317"/></clipPath><clipPath id="020d1c75e6"><path d="M 5.25 56.902344 L 762.679688 56.902344 L 762.679688 372.648438 L 5.25 372.648438 Z M 5.25 56.902344 " clip-rule="nonzero"/></clipPath><clipPath id="7021d58783"><path d="M 50.25 56.902344 L 717.515625 56.902344 C 729.449219 56.902344 740.898438 61.644531 749.335938 70.082031 C 757.773438 78.519531 762.515625 89.964844 762.515625 101.902344 L 762.515625 327.542969 C 762.515625 339.476562 757.773438 350.925781 749.335938 359.363281 C 740.898438 367.800781 729.449219 372.542969 717.515625 372.542969 L 50.25 372.542969 C 38.316406 372.542969 26.867188 367.800781 18.429688 359.363281 C 9.992188 350.925781 5.25 339.476562 5.25 327.542969 L 5.25 101.902344 C 5.25 89.964844 9.992188 78.519531 18.429688 70.082031 C 26.867188 61.644531 38.316406 56.902344 50.25 56.902344 Z M 50.25 56.902344 " clip-rule="nonzero"/></clipPath><clipPath id="d568d215be"><path d="M 644 290 L 693 290 L 693 365 L 644 365 Z M 644 290 " clip-rule="nonzero"/></clipPath><clipPath id="4400637476"><path d="M 496.375 226.679688 L 667.667969 55.386719 L 838.964844 226.679688 L 667.667969 397.976562 Z M 496.375 226.679688 " clip-rule="nonzero"/></clipPath><clipPath id="db90dbc8a0"><path d="M 496.375 226.679688 L 667.667969 55.386719 L 838.964844 226.679688 L 667.667969 397.976562 Z M 496.375 226.679688 " clip-rule="nonzero"/></clipPath><clipPath id="3465bc668f"><path d="M 584 65 L 751 65 L 751 317 L 584 317 Z M 584 65 " clip-rule="nonzero"/></clipPath><clipPath id="f2c665f000"><path d="M 496.375 226.679688 L 667.667969 55.386719 L 838.964844 226.679688 L 667.667969 397.976562 Z M 496.375 226.679688 " clip-rule="nonzero"/></clipPath><clipPath id="768eb7f1b4"><path d="M 496.375 226.679688 L 667.667969 55.386719 L 838.964844 226.679688 L 667.667969 397.976562 Z M 496.375 226.679688 " clip-rule="nonzero"/></clipPath><clipPath id="efe619b377"><path d="M 635.648438 189.589844 L 701.648438 189.589844 L 701.648438 242.839844 L 635.648438 242.839844 Z M 635.648438 189.589844 " clip-rule="nonzero"/></clipPath><clipPath id="cd717e1dc5"><path d="M 139.570312 11.25 L 628.347656 11.25 L 628.347656 113.0625 L 139.570312 113.0625 Z M 139.570312 11.25 " clip-rule="nonzero"/></clipPath><clipPath id="fa8fc85583"><path d="M 184.570312 11.25 L 583.207031 11.25 C 595.140625 11.25 606.585938 15.992188 615.027344 24.429688 C 623.464844 32.871094 628.207031 44.316406 628.207031 56.25 L 628.207031 68.0625 C 628.207031 79.996094 623.464844 91.441406 615.027344 99.882812 C 606.585938 108.320312 595.140625 113.0625 583.207031 113.0625 L 184.570312 113.0625 C 172.636719 113.0625 161.191406 108.320312 152.75 99.882812 C 144.3125 91.441406 139.570312 79.996094 139.570312 68.0625 L 139.570312 56.25 C 139.570312 44.316406 144.3125 32.871094 152.75 24.429688 C 161.191406 15.992188 172.636719 11.25 184.570312 11.25 Z M 184.570312 11.25 " clip-rule="nonzero"/></clipPath><clipPath id="f7ee2d059b"><path d="M 0.570312 0.25 L 489.320312 0.25 L 489.320312 102.0625 L 0.570312 102.0625 Z M 0.570312 0.25 " clip-rule="nonzero"/></clipPath><clipPath id="c32b09e5fd"><path d="M 45.570312 0.25 L 444.207031 0.25 C 456.140625 0.25 467.585938 4.992188 476.027344 13.429688 C 484.464844 21.871094 489.207031 33.316406 489.207031 45.25 L 489.207031 57.0625 C 489.207031 68.996094 484.464844 80.441406 476.027344 88.882812 C 467.585938 97.320312 456.140625 102.0625 444.207031 102.0625 L 45.570312 102.0625 C 33.636719 102.0625 22.191406 97.320312 13.75 88.882812 C 5.3125 80.441406 0.570312 68.996094 0.570312 57.0625 L 0.570312 45.25 C 0.570312 33.316406 5.3125 21.871094 13.75 13.429688 C 22.191406 4.992188 33.636719 0.25 45.570312 0.25 Z M 45.570312 0.25 " clip-rule="nonzero"/></clipPath><clipPath id="b8b809ba1b"><rect x="0" width="490" y="0" height="103"/></clipPath><clipPath id="5b63097347"><path d="M 139.589844 11.25 L 628.570312 11.25 L 628.570312 113.078125 L 139.589844 113.078125 Z M 139.589844 11.25 " clip-rule="nonzero"/></clipPath><clipPath id="29b9df303f"><path d="M 184.585938 11.25 L 583.179688 11.25 C 595.113281 11.25 606.558594 15.992188 614.996094 24.429688 C 623.433594 32.867188 628.175781 44.3125 628.175781 56.246094 L 628.175781 68.054688 C 628.175781 79.988281 623.433594 91.433594 614.996094 99.871094 C 606.558594 108.308594 595.113281 113.050781 583.179688 113.050781 L 184.585938 113.050781 C 172.652344 113.050781 161.207031 108.308594 152.769531 99.871094 C 144.332031 91.433594 139.589844 79.988281 139.589844 68.054688 L 139.589844 56.246094 C 139.589844 44.3125 144.332031 32.867188 152.769531 24.429688 C 161.207031 15.992188 172.652344 11.25 184.585938 11.25 Z M 184.585938 11.25 " clip-rule="nonzero"/></clipPath></defs><g clip-path="url(#c311294413)"><g clip-path="url(#7b4761f476)"><g transform="matrix(1, 0, 0, 1, 5, 56)"><g clip-path="url(#ba74bc5665)"><g clip-path="url(#8108b2c5bf)"><g clip-path="url(#03b265554f)"><path fill="#1a0a3d" d="M 0.25 0.898438 L 757.308594 0.898438 L 757.308594 316.546875 L 0.25 316.546875 Z M 0.25 0.898438 " fill-opacity="1" fill-rule="nonzero"/></g></g></g></g></g></g><g clip-path="url(#020d1c75e6)"><g clip-path="url(#7021d58783)"><path stroke-linecap="butt" transform="matrix(0.75, 0, 0, 0.75, 5.250014, 56.900175)" fill="none" stroke-linejoin="miter" d="M 59.999982 0.00289207 L 949.687496 0.00289207 C 965.598954 0.00289207 980.86458 6.325809 992.11458 17.575809 C 1003.36458 28.825809 1009.687497 44.086226 1009.687497 60.002893 L 1009.687497 360.857064 C 1009.687497 376.768523 1003.36458 392.034148 992.11458 403.284148 C 980.86458 414.534148 965.598954 420.857065 949.687496 420.857065 L 59.999982 420.857065 C 44.088524 420.857065 28.822898 414.534148 17.572898 403.284148 C 6.322898 392.034148 -0.0000186458 376.768523 -0.0000186458 360.857064 L -0.0000186458 60.002893 C -0.0000186458 44.086226 6.322898 28.825809 17.572898 17.575809 C 28.822898 6.325809 44.088524 0.00289207 59.999982 0.00289207 Z M 59.999982 0.00289207 " stroke="#7a1fe7" stroke-width="16" stroke-opacity="1" stroke-miterlimit="4"/></g></g><g clip-path="url(#d568d215be)"><g clip-path="url(#4400637476)"><g clip-path="url(#db90dbc8a0)"><path fill="#29125b" d="M 649.566406 290.769531 C 644.335938 290.769531 644.664062 293.070312 644.664062 294.234375 C 644.664062 324.378906 667.648438 374.121094 671.167969 363.496094 C 683.992188 324.816406 692.128906 324.375 692.128906 294.234375 C 692.128906 293.070312 692.511719 290.769531 687.121094 290.769531 Z M 649.566406 290.769531 " fill-opacity="1" fill-rule="nonzero"/></g></g></g><g clip-path="url(#3465bc668f)"><g clip-path="url(#f2c665f000)"><g clip-path="url(#768eb7f1b4)"><path fill="#29125b" d="M 730.613281 209.320312 C 727.753906 207.832031 728.136719 205.351562 728.089844 204.101562 C 725.441406 134.925781 698.738281 65.941406 667.402344 65.941406 C 636.238281 65.941406 611.625 134.070312 608.746094 202.992188 C 608.691406 204.359375 608.53125 206.996094 605.503906 208.976562 L 591.652344 217.5 C 587.808594 219.867188 584.660156 225.496094 584.660156 230.011719 L 584.660156 312.097656 C 584.660156 316.613281 587.648438 318.132812 591.296875 315.472656 L 625.648438 290.453125 C 629.296875 287.796875 632.285156 281.925781 632.28125 277.414062 C 632.28125 277.414062 632.277344 274.34375 635.355469 274.34375 C 652.335938 274.34375 683.890625 274.34375 700.066406 274.34375 C 703.28125 274.34375 703.273438 277.414062 703.273438 277.414062 C 703.273438 281.929688 706.257812 287.796875 709.90625 290.453125 L 744.257812 315.472656 C 747.90625 318.132812 750.894531 316.613281 750.894531 312.097656 L 750.894531 230.011719 C 750.894531 225.496094 747.75 219.867188 743.902344 217.5 Z M 668.398438 165.484375 C 654.492188 165.484375 643.222656 154.214844 643.222656 140.3125 C 643.222656 126.410156 654.492188 115.140625 668.398438 115.140625 C 682.300781 115.140625 693.570312 126.410156 693.570312 140.3125 C 693.570312 154.214844 682.300781 165.488281 668.398438 165.484375 Z M 668.398438 165.484375 " fill-opacity="1" fill-rule="nonzero"/></g></g></g><path fill="#1a0a3d" d="M 668.601562 217.359375 C 669.800781 217.359375 670.914062 217.585938 671.9375 218.035156 C 672.964844 218.484375 673.867188 219.097656 674.640625 219.875 C 675.417969 220.648438 676.03125 221.550781 676.480469 222.574219 C 676.929688 223.601562 677.15625 224.714844 677.15625 225.914062 C 677.15625 227.117188 676.929688 228.230469 676.480469 229.253906 C 676.03125 230.28125 675.417969 231.179688 674.640625 231.957031 C 673.867188 232.730469 672.964844 233.34375 671.9375 233.796875 C 670.914062 234.246094 669.800781 234.472656 668.601562 234.472656 C 667.398438 234.472656 666.285156 234.246094 665.261719 233.796875 C 664.234375 233.34375 663.332031 232.730469 662.558594 231.957031 C 661.78125 231.179688 661.167969 230.28125 660.71875 229.253906 C 660.269531 228.230469 660.042969 227.117188 660.042969 225.914062 C 660.042969 224.714844 660.269531 223.601562 660.71875 222.574219 C 661.167969 221.550781 661.78125 220.648438 662.558594 219.875 C 663.332031 219.097656 664.234375 218.484375 665.261719 218.035156 C 666.285156 217.585938 667.398438 217.359375 668.601562 217.359375 Z M 668.601562 217.359375 " fill-opacity="1" fill-rule="evenodd"/><g clip-path="url(#efe619b377)"><path fill="#1a0a3d" d="M 701.097656 236.421875 C 701.648438 237.625 701.683594 238.835938 701.210938 240.0625 C 700.734375 241.289062 699.894531 242.175781 698.695312 242.726562 C 698.09375 243.027344 697.445312 243.175781 696.742188 243.175781 C 695.84375 243.175781 694.992188 242.925781 694.191406 242.425781 C 693.390625 241.925781 692.789062 241.25 692.390625 240.398438 L 675.730469 203.699219 C 675.078125 202.300781 674.101562 201.199219 672.800781 200.398438 C 671.5 199.597656 670.101562 199.199219 668.601562 199.199219 C 667.050781 199.199219 665.636719 199.597656 664.359375 200.398438 C 663.082031 201.199219 662.121094 202.300781 661.46875 203.699219 L 644.734375 240.398438 C 644.183594 241.601562 643.296875 242.425781 642.070312 242.875 C 640.84375 243.328125 639.628906 243.277344 638.429688 242.726562 C 637.230469 242.175781 636.402344 241.289062 635.953125 240.0625 C 635.503906 238.835938 635.550781 237.625 636.101562 236.421875 L 652.765625 199.796875 C 654.214844 196.695312 656.355469 194.21875 659.179688 192.367188 C 662.007812 190.515625 665.148438 189.589844 668.601562 189.589844 C 672.003906 189.589844 675.128906 190.515625 677.980469 192.367188 C 680.832031 194.21875 682.960938 196.695312 684.359375 199.796875 Z M 701.097656 236.421875 " fill-opacity="1" fill-rule="nonzero"/></g><g clip-path="url(#cd717e1dc5)"><g clip-path="url(#fa8fc85583)"><g transform="matrix(1, 0, 0, 1, 139, 11)"><g clip-path="url(#b8b809ba1b)"><g clip-path="url(#f7ee2d059b)"><g clip-path="url(#c32b09e5fd)"><path fill="#1a0a3d" d="M 0.570312 0.25 L 489.347656 0.25 L 489.347656 102.0625 L 0.570312 102.0625 Z M 0.570312 0.25 " fill-opacity="1" fill-rule="nonzero"/></g></g></g></g></g></g><g clip-path="url(#5b63097347)"><g clip-path="url(#29b9df303f)"><path stroke-linecap="butt" transform="matrix(0.75, 0, 0, 0.75, 139.570506, 11.249999)" fill="none" stroke-linejoin="miter" d="M 60.02058 0.0000011875 L 591.478956 0.0000011875 C 607.390415 0.0000011875 622.650833 6.322918 633.900834 17.572919 C 645.150835 28.82292 651.473752 44.083338 651.473752 59.994798 L 651.473752 75.739591 C 651.473752 91.65105 645.150835 106.911468 633.900834 118.161469 C 622.650833 129.41147 607.390415 135.734387 591.478956 135.734387 L 60.02058 135.734387 C 44.109121 135.734387 28.848703 129.41147 17.598702 118.161469 C 6.348701 106.911468 0.025784 91.65105 0.025784 75.739591 L 0.025784 59.994798 C 0.025784 44.083338 6.348701 28.82292 17.598702 17.572919 C 28.848703 6.322918 44.109121 0.0000011875 60.02058 0.0000011875 Z M 60.02058 0.0000011875 " stroke="#7a1fe7" stroke-width="16" stroke-opacity="1" stroke-miterlimit="4"/></g></g></svg>